<svg width="50" height="50" viewBox="0 0 50 50" fill="none" xmlns="http://www.w3.org/2000/svg">
<path d="M14.9444 43H34.0556M24.5 43V33.1333M5.38889 6H43.6111C44.2447 6 44.8523 6.25988 45.3003 6.72247C45.7483 7.18506 46 7.81247 46 8.46667V30.6667C46 31.3209 45.7483 31.9483 45.3003 32.4109C44.8523 32.8735 44.2447 33.1333 43.6111 33.1333H5.38889C4.75532 33.1333 4.14769 32.8735 3.69969 32.4109C3.25169 31.9483 3 31.3209 3 30.6667V8.46667C3 7.81247 3.25169 7.18506 3.69969 6.72247C4.14769 6.25988 4.75532 6 5.38889 6Z" stroke="white" stroke-width="3" stroke-linecap="round" stroke-linejoin="round"/>
</svg>
