<svg width="50" height="50" viewBox="0 0 50 50" fill="none" xmlns="http://www.w3.org/2000/svg">
<path d="M6.41482 16.4891C7.12478 16.4891 7.82779 16.6275 8.48367 16.8964C9.13954 17.1653 9.73544 17.5594 10.2373 18.0562C10.7392 18.5529 11.1372 19.1427 11.4085 19.7917C11.6799 20.4407 11.8194 21.1362 11.8189 21.8386V29.9939H38.1917V21.8352C38.1924 20.8319 38.4784 19.849 39.0171 18.9989C39.5558 18.1489 40.3255 17.4659 41.2381 17.0281C42.1507 16.5904 43.1693 16.4155 44.1777 16.5235C45.186 16.6316 46.1432 17.0181 46.9399 17.6389C47.7366 18.2598 48.3407 19.0899 48.683 20.0344C49.0252 20.9788 49.0919 21.9995 48.8755 22.9797C48.659 23.9599 48.168 24.8601 47.4588 25.5773C46.7495 26.2944 45.8505 26.7997 44.8647 27.0352V42.4227C44.8638 42.8408 44.6955 43.2415 44.3967 43.5371C44.0979 43.8327 43.6929 43.9991 43.2703 44H6.74377C6.32118 43.9991 5.91616 43.8327 5.61735 43.5371C5.31853 43.2415 5.15027 42.8408 5.14938 42.4227V27.0352C3.86108 26.731 2.73057 25.9693 1.97254 24.8949C1.21452 23.8204 0.881773 22.5079 1.03749 21.2067C1.19321 19.9055 1.82655 18.7062 2.81723 17.8365C3.80792 16.9668 5.09032 16.4874 6.41482 16.4891ZM9.96946 13.5206C9.71985 13.4163 9.46561 13.3232 9.20751 13.2416V8.6825C9.20928 7.70753 9.60112 6.77289 10.2974 6.08286C10.9936 5.39282 11.9377 5.00351 12.9233 5H37.0841C38.0702 5.00263 39.0151 5.39156 39.7121 6.08169C40.4091 6.77182 40.8014 7.70696 40.8032 8.6825V13.2416C40.5451 13.3232 40.2908 13.4163 40.0412 13.5206C38.3884 14.2111 36.9781 15.3686 35.987 16.8481C34.9959 18.3277 34.4679 20.0636 34.4693 21.8386V26.3114H15.5414V21.8386C15.5414 20.0639 15.013 18.3286 14.022 16.8492C13.0311 15.3699 11.6216 14.2122 9.96946 13.5206Z" fill="white"/>
</svg>
