<svg width="50" height="50" viewBox="0 0 50 50" fill="none" xmlns="http://www.w3.org/2000/svg">
<path fill-rule="evenodd" clip-rule="evenodd" d="M41.5965 1.00185H7.50107C5.83071 0.961575 4.21173 1.58107 2.99489 2.72613C1.77804 3.87119 1.06132 5.44959 1 7.11939V41.8821C1.05516 43.5346 1.7548 45.1 2.94926 46.2432C4.14371 47.3865 5.73812 48.0169 7.39142 47.9997H16.0073C16.8689 44.4435 21.0672 42.3834 25.5161 40.5662C28.8371 39.1562 29.3463 37.95 29.3463 36.54C29.3463 35.1301 28.3358 33.822 27.2314 32.8115C26.231 31.9385 25.4398 30.8516 24.9164 29.6312C24.3931 28.4109 24.151 27.0885 24.2081 25.7619C24.2081 20.5216 27.6309 15.8923 33.6072 15.8923C39.5835 15.8923 43.0063 20.4276 43.0063 25.7619C43.02 27.0825 42.7582 28.3916 42.2376 29.6054C41.7171 30.8192 40.9492 31.9111 39.9829 32.8115C38.8785 33.916 37.8681 35.1614 37.8681 36.54C37.8681 37.9186 38.2676 39.1562 41.6983 40.5662C43.8313 41.3707 45.8737 42.3972 47.7921 43.6289C47.9499 43.0606 48.0186 42.4714 47.9957 41.8821V7.11939C48.1054 3.79038 45.1916 1.00185 41.5965 1.00185ZM22.6259 11.4589C22.6063 12.0253 22.372 12.563 21.9705 12.963C21.5691 13.363 21.0305 13.5954 20.4641 13.6129H9.44357C8.87438 13.5993 8.33192 13.3687 7.92715 12.9683C7.52239 12.5678 7.28591 12.0279 7.2661 11.4589V9.30479C7.28571 8.7384 7.52 8.20066 7.92145 7.80065C8.3229 7.40063 8.86146 7.16828 9.4279 7.15073H20.4641C21.0305 7.16828 21.5691 7.40063 21.9705 7.80065C22.372 8.20066 22.6063 8.7384 22.6259 9.30479V11.4589Z" fill="white"/>
</svg>
