<svg width="50" height="50" viewBox="0 0 50 50" fill="none" xmlns="http://www.w3.org/2000/svg">
<path fill-rule="evenodd" clip-rule="evenodd" d="M9.375 3L5.20834 15.2857H0V24.5H3.125V46H9.375V39.8571H40.625V46H46.875V24.5H50V15.2857H44.7916L40.625 3H9.375ZM12.5 27.5714C10.7741 27.5714 9.375 28.9466 9.375 30.6429C9.375 32.3392 10.7741 33.7143 12.5 33.7143C14.2259 33.7143 15.625 32.3392 15.625 30.6429C15.625 28.9466 14.2259 27.5714 12.5 27.5714ZM36.1203 9.14286H13.8798L9.71309 21.4286H40.2869L36.1203 9.14286ZM37.5 27.5714C35.7741 27.5714 34.375 28.9466 34.375 30.6429C34.375 32.3392 35.7741 33.7143 37.5 33.7143C39.2259 33.7143 40.625 32.3392 40.625 30.6429C40.625 28.9466 39.2259 27.5714 37.5 27.5714Z" fill="white"/>
</svg>
